{"title":"Little Big Man 1970 DVDrip English Klam","uid":6564626,"size":2207549199,"categoryP":"video","categoryS":"movies","magnet":"?xt=urn:btih:6d82ed01718fd1c07bca69de419d3af474e1a342&amp;dn=Little+Big+Man+1970+DVDrip+English+Klam&amp;tr=udp%3A%2F%2Ftracker.openbittorrent.com%3A80&amp;tr=udp%3A%2F%2Fopen.demonii.com%3A1337&amp;tr=udp%3A%2F%2Ftracker.coppersurfer.tk%3A6969&amp;tr=udp%3A%2F%2Fexodus.desync.com%3A6969","seeders":0,"leechers":1,"uploader":"Klambake","files":-1,"time":1311624916,"description":"With: Dustin Hoffman, Faye Dunaway and Martin Balsam\n\nEen man van 121 vertelt zijn levensverhaal. Toen hij 10 was, klein maar sterk, werd hij geadopteerd door de indianen. Hij kreeg verschillende blanke opvoedingen en leefde constant in tweestrijd door de oorlog. We volgen zijn leven tot aan de Battle at little big horn, waar Generaal Custer de dood vond.\n\nJack Crabb, looking back from extreme old age, tells of his life being raised by Indians and fighting with General Custer. \n\n------------------ Dutch Friends ------------------\nYou can find my Friends at: http://www.Film-Test.nl \n------ They got my dutchs subs ---- and more ------\n\nGeneral:\n\nComplete name                    : Little Big Man\\Litle Big Man.avi\nFormat                           : AVI\nFormat/Info                      : Audio Video Interleave\nFile size                        : 2.06 GiB\nDuration                         : 2h 13mn\nOverall bit rate                 : 2 201 Kbps\n\nVideo:\n\nFormat                           : MPEG-4 Visual\nFormat profile                   : Simple@L3\nFormat settings, BVOP            : No\nFormat settings, QPel            : No\nFormat settings, GMC             : No warppoints\nFormat settings, Matrix          : Default (H.263)\nCodec ID                         : XVID\nCodec ID/Hint                    : XviD\nDuration                         : 2h 13mn\nBit rate                         : 1 743 Kbps\nWidth                            : 720 pixels\nHeight                           : 328 pixels\nDisplay aspect ratio             : 2.2:1\nFrame rate                       : 25.000 fps\nColor space                      : YUV\nChroma subsampling               : 4:2:0\nBit depth                        : 8 bits\nScan type                        : Progressive\nBits/(Pixel*Frame)               : 0.295\nStream size                      : 1.63 GiB (79%)\nWriting library                  : XviD 1.1.2 (UTC 2006-11-01)\n\nAudio:\n\nFormat                           : AC-3\nFormat/Info                      : Audio Coding 3\nMode extension                   : CM (complete main)\nCodec ID                         : 2000\nDuration                         : 2h 13mn\nBit rate mode                    : Constant\nBit rate                         : 448 Kbps\nChannel(s)                       : 6 channels\nChannel positions                : Front: L C R, Side: L R, LFE\nSampling rate                    : 48.0 KHz\nBit depth                        : 16 bits\nStream size                      : 428 MiB (20%)\nAlignment                        : Aligned on interleaves\nInterleave, duration             : 32 ms (0.80 video frame)\n\n\n","torrent":{"xt":"urn:btih:6d82ed01718fd1c07bca69de419d3af474e1a342","amp;dn":"Little+Big+Man+1970+DVDrip+English+Klam","amp;tr":["udp%3A%2F%2Ftracker.openbittorrent.com%3A80","udp%3A%2F%2Fopen.demonii.com%3A1337","udp%3A%2F%2Ftracker.coppersurfer.tk%3A6969","udp%3A%2F%2Fexodus.desync.com%3A6969"],"infoHash":"6d82ed01718fd1c07bca69de419d3af474e1a342","infoHashBuffer":{"type":"Buffer","data":[109,130,237,1,113,143,209,192,123,202,105,222,65,157,58,244,116,225,163,66]},"announce":[],"urlList":[]}}